<?xml version="1.0" standalone="no"?>
<!DOCTYPE svg PUBLIC "-//W3C//DTD SVG 20010904//EN"
 "http://www.w3.org/TR/2001/REC-SVG-20010904/DTD/svg10.dtd">
<svg version="1.0" xmlns="http://www.w3.org/2000/svg"
 width="500.000000pt" height="500.000000pt" viewBox="0 0 500.000000 500.000000"
 preserveAspectRatio="xMidYMid meet">

<g transform="translate(0.000000,500.000000) scale(0.100000,-0.100000)"
fill="#000000" stroke="none">
<path d="M2735 4256 c-20 -34 -59 -97 -86 -140 -38 -60 -47 -81 -37 -87 23
-15 56 -10 63 10 12 39 29 44 104 31 67 -11 69 -12 75 -45 6 -28 12 -34 39
-38 17 -2 33 -3 35 -2 6 5 -64 259 -81 295 -8 15 -24 27 -44 31 -30 6 -33 3
-68 -55z m75 -58 c6 -24 13 -51 16 -60 5 -15 -1 -18 -39 -18 -24 0 -46 3 -49
6 -5 5 51 114 59 114 1 0 7 -19 13 -42z"/>
<path d="M3045 4235 c-14 -13 -25 -29 -25 -35 0 -7 -8 -9 -19 -5 -27 8 -40
-33 -16 -51 14 -10 15 -18 6 -46 -26 -82 -40 -133 -37 -135 1 -2 16 -5 32 -9
29 -6 30 -5 54 76 14 45 28 84 31 86 4 2 18 0 32 -5 21 -8 26 -7 31 11 6 27 0
38 -23 38 -26 0 -32 10 -20 32 8 15 17 18 36 13 23 -5 53 8 53 25 0 12 -49 30
-81 30 -18 0 -39 -9 -54 -25z"/>
<path d="M2384 4173 c7 -84 -6 -113 -48 -113 -45 0 -48 8 -61 117 l-7 62 -32
-6 c-17 -3 -31 -6 -32 -7 -1 -1 3 -39 8 -86 8 -71 14 -90 35 -112 34 -35 97
-39 137 -7 22 17 26 18 26 5 0 -13 6 -15 28 -10 15 4 27 7 28 8 3 3 -17 203
-21 214 -2 6 -19 12 -36 12 l-32 0 7 -77z"/>
<path d="M2090 4200 c-14 -4 -24 -12 -22 -18 1 -8 -14 -12 -44 -12 -65 0 -111
-30 -120 -77 -10 -51 6 -103 39 -127 39 -28 109 -27 140 2 31 29 37 28 37 -7
0 -39 -21 -54 -85 -59 -42 -3 -56 -9 -60 -23 -4 -10 -3 -23 0 -29 11 -18 79
-10 132 14 51 24 83 63 83 102 0 22 -27 113 -54 185 -19 51 -23 55 -46 49z
m-20 -90 c39 -39 11 -110 -45 -110 -28 0 -65 35 -65 62 0 25 44 68 70 68 11 0
29 -9 40 -20z"/>
<path d="M3407 4134 c-4 -4 -7 -18 -7 -30 0 -31 44 -44 68 -20 13 13 14 20 6
34 -11 18 -55 28 -67 16z"/>
<path d="M3141 4033 c-23 -54 -41 -103 -41 -108 0 -6 13 -16 29 -22 28 -10 30
-9 40 18 6 16 16 42 22 58 16 44 43 64 79 59 26 -4 33 -1 41 19 5 13 9 26 9
29 0 2 -21 4 -46 4 -30 0 -43 4 -38 11 3 6 0 15 -7 20 -34 22 -47 9 -88 -88z"/>
<path d="M1719 4057 c-82 -43 -100 -137 -38 -199 23 -24 36 -28 82 -28 46 0
61 5 89 27 55 45 60 59 27 71 -16 6 -28 2 -50 -21 -22 -21 -36 -28 -61 -25
-53 5 -43 25 31 62 38 20 72 40 76 45 10 16 -23 58 -60 75 -42 20 -44 20 -96
-7z m80 -50 c9 -11 1 -19 -38 -40 -59 -33 -61 -33 -61 -3 0 42 73 74 99 43z"/>
<path d="M3312 3949 c-29 -56 -52 -102 -50 -104 7 -5 47 -25 52 -25 3 0 97
165 114 201 3 6 -43 29 -56 29 -4 0 -31 -46 -60 -101z"/>
<path d="M3461 3938 c-42 -23 -66 -65 -65 -115 1 -41 6 -51 42 -85 35 -32 48
-38 87 -38 47 0 53 7 34 41 -6 13 -17 18 -28 14 -27 -8 -71 31 -71 64 0 35 33
71 65 71 28 0 65 -32 65 -55 0 -10 10 -15 30 -15 22 0 30 5 30 18 -2 73 -121
136 -189 100z"/>
<path d="M1479 3907 c-19 -12 -38 -33 -44 -45 -5 -12 -12 -22 -15 -22 -4 0
-19 18 -36 40 -16 22 -32 40 -35 40 -4 0 -17 -8 -29 -18 l-21 -17 28 -37 c15
-21 51 -67 78 -104 93 -124 88 -119 118 -100 15 10 24 23 20 32 -4 10 3 14 24
14 19 0 39 10 58 30 24 25 29 39 29 80 0 54 -23 88 -76 116 -38 20 -60 18 -99
-9z m99 -73 c27 -31 28 -44 1 -78 -13 -17 -30 -26 -49 -26 -32 0 -70 39 -70
72 0 10 11 30 25 44 30 30 58 26 93 -12z"/>
<path d="M3697 3788 c-7 -25 -1 -38 17 -38 7 0 25 -13 40 -29 20 -21 26 -35
21 -50 -9 -28 -13 -27 -63 19 -53 49 -91 53 -121 14 -12 -15 -21 -32 -21 -39
0 -26 47 -80 78 -91 22 -7 29 -13 21 -21 -7 -7 -2 -15 17 -28 l26 -17 54 53
c30 29 58 67 64 85 18 54 -16 111 -87 148 -40 20 -40 20 -46 -6z m17 -146 c22
-26 14 -42 -23 -42 -33 0 -51 16 -51 46 0 40 36 37 74 -4z"/>
<path d="M1200 3771 c-7 -15 -2 -43 26 -121 19 -56 33 -104 31 -106 -2 -3 -44
2 -92 11 -132 23 -155 19 -155 -25 0 -4 52 -51 115 -104 l114 -96 18 26 c19
30 20 28 -82 111 l-39 33 55 -8 c29 -3 72 -7 94 -7 34 0 40 3 38 20 -1 21 -25
107 -38 138 -12 30 8 19 70 -38 33 -30 62 -54 65 -54 3 0 13 11 23 24 17 24
17 25 -20 59 -90 80 -186 156 -199 156 -7 0 -18 -9 -24 -19z"/>
<path d="M3832 3408 c-30 -30 -2 -86 37 -73 29 9 36 42 15 66 -20 22 -35 24
-52 7z"/>
<path d="M4190 3300 c-8 -5 -68 -31 -133 -56 -106 -42 -118 -49 -113 -68 3
-12 6 -24 6 -28 0 -14 26 -9 81 16 30 13 65 27 78 31 l25 7 -23 -28 c-92 -119
-96 -129 -58 -143 12 -5 53 -12 90 -16 56 -5 66 -9 57 -20 -6 -8 -26 -17 -43
-21 -18 -4 -51 -16 -73 -27 -40 -19 -41 -21 -32 -48 5 -16 11 -29 13 -29 4 0
76 29 112 46 17 8 35 14 40 14 4 0 36 12 70 27 54 23 62 30 57 48 -10 32 -16
35 -125 51 -57 9 -105 17 -107 19 -2 1 28 44 67 95 62 83 68 95 59 116 -12 26
-24 29 -48 14z"/>
<path d="M1032 3098 c-29 -29 -3 -72 40 -66 19 2 23 9 23 38 0 30 -4 35 -25
38 -14 2 -31 -3 -38 -10z"/>
<path d="M824 2898 c-63 -30 -83 -193 -22 -181 20 4 23 9 20 43 -5 46 12 80
38 80 18 0 19 -5 13 -60 -4 -46 -2 -65 11 -85 17 -27 53 -33 86 -15 24 13 44
73 36 110 -3 16 -1 30 4 32 5 2 11 14 15 29 6 24 4 26 -67 42 -82 19 -104 20
-134 5z m134 -80 c27 -27 2 -95 -31 -82 -10 4 -17 17 -17 34 0 55 21 75 48 48z"/>
<path d="M4260 2860 c-52 -10 -116 -21 -143 -25 -45 -6 -47 -7 -40 -33 3 -15
9 -28 13 -30 4 -1 5 -27 2 -57 -4 -52 -3 -56 31 -90 31 -31 41 -35 87 -35 46
0 56 4 86 34 29 29 34 41 34 83 0 38 -5 54 -21 69 -21 19 -21 19 37 29 33 5
58 13 57 18 -2 4 -3 18 -3 32 0 30 -7 31 -140 5z m4 -102 c21 -30 20 -54 -4
-78 -41 -41 -120 -14 -120 40 0 56 92 84 124 38z"/>
<path d="M772 2637 c-46 -49 -41 -141 11 -188 37 -34 102 -40 144 -12 54 36
71 141 30 188 l-22 27 -19 -21 c-18 -20 -18 -22 -3 -39 39 -42 8 -102 -51
-102 -62 0 -90 63 -48 109 13 14 13 19 -2 39 l-18 23 -22 -24z"/>
<path d="M4164 2541 c-51 -31 -70 -121 -38 -182 15 -29 16 -30 34 -14 15 13
17 22 10 36 -18 32 -11 74 15 99 l24 23 3 -94 3 -94 30 2 c65 5 105 49 105
118 0 101 -100 158 -186 106z m131 -106 c0 -28 -6 -41 -22 -52 l-23 -15 0 67
0 67 23 -14 c16 -12 22 -25 22 -53z"/>
<path d="M853 2372 c-109 -3 -113 -3 -113 -25 0 -47 10 -50 129 -42 l111 7 0
29 c0 15 -3 29 -7 31 -5 2 -59 2 -120 0z"/>
<path d="M640 2356 c-6 -8 -10 -25 -8 -38 2 -18 9 -23 33 -23 24 0 31 5 33 23
4 25 -13 52 -33 52 -7 0 -18 -7 -25 -14z"/>
<path d="M4022 2261 c-16 -28 -22 -55 -22 -97 0 -62 3 -69 36 -97 19 -16 195
-57 243 -57 20 0 37 50 20 61 -5 3 0 17 11 31 29 38 27 98 -6 137 -75 90 -213
31 -201 -86 5 -47 -8 -56 -37 -27 -22 21 -20 72 4 111 17 29 18 34 4 48 -22
22 -28 19 -52 -24z m226 -57 c27 -18 30 -69 5 -96 -42 -46 -112 -2 -98 62 10
45 54 62 93 34z"/>
<path d="M763 2243 c-19 -7 -16 -27 8 -57 17 -21 18 -26 5 -26 -17 0 -21 -27
-8 -48 7 -10 24 -11 78 -3 38 6 90 13 116 16 45 6 46 6 41 38 -3 18 -7 34 -8
36 -2 2 -34 -2 -70 -9 -56 -11 -68 -10 -89 4 -14 8 -27 25 -31 36 -6 20 -18
23 -42 13z"/>
<path d="M797 2054 c-3 -4 -3 -19 0 -35 5 -26 3 -29 -21 -29 -21 0 -26 5 -26
25 0 20 -5 25 -23 25 -33 0 -36 -6 -26 -48 10 -46 44 -74 86 -69 21 2 34 -2
38 -11 8 -21 50 -11 50 12 0 15 17 24 86 44 l87 24 -11 33 c-8 29 -13 32 -31
24 -40 -16 -147 -40 -156 -34 -6 3 -10 15 -10 26 0 18 -29 27 -43 13z"/>
<path d="M4054 1965 c-31 -21 -56 -79 -48 -111 4 -17 3 -25 -3 -21 -9 6 -38
-41 -31 -48 2 -2 50 -22 107 -46 100 -40 105 -41 118 -23 22 30 12 44 -50 69
-32 12 -64 28 -72 35 -31 26 -10 90 30 90 24 0 38 -4 107 -34 l37 -16 15 30
c17 35 20 32 -71 65 -81 29 -110 31 -139 10z"/>
<path d="M970 1889 c-41 -46 -94 -103 -117 -128 l-41 -44 16 -34 16 -33 168 0
c92 0 168 2 168 5 0 4 -7 19 -15 35 -13 25 -21 30 -48 28 -30 -3 -34 0 -64 64
l-33 67 25 27 c14 15 22 31 19 36 -3 5 -9 21 -13 34 -6 24 -10 21 -81 -57z
m28 -106 c29 -75 30 -73 -44 -73 l-67 0 44 49 c24 27 47 49 50 50 4 1 11 -11
17 -26z"/>
<path d="M3895 1639 c-18 -19 -18 -21 -1 -54 l18 -33 -31 -44 c-57 -81 -54
-79 -92 -68 -19 6 -35 10 -36 10 -1 0 -9 -13 -18 -30 l-15 -29 42 -11 c24 -6
50 -13 58 -15 8 -2 35 -7 60 -10 25 -3 71 -13 104 -22 l58 -16 19 24 c23 30
24 50 1 80 -10 13 -23 35 -30 49 -7 14 -26 48 -42 75 -17 28 -38 65 -47 83
-20 38 -24 39 -48 11z m105 -237 c0 -8 -7 -11 -17 -8 -10 2 -34 8 -53 11 -52
11 -53 13 -19 56 l31 39 29 -42 c16 -24 29 -49 29 -56z"/>
<path d="M1190 1504 c-30 -25 -70 -59 -88 -75 l-34 -29 20 -25 20 -25 55 45
c77 62 137 60 137 -4 0 -20 -15 -38 -60 -74 -59 -47 -60 -48 -44 -72 20 -31
24 -31 65 3 101 81 118 109 99 166 -11 35 -47 66 -76 66 -12 0 -14 3 -6 13 7
8 5 18 -8 35 -10 12 -20 22 -22 21 -1 0 -28 -20 -58 -45z"/>
<path d="M3673 1360 c-13 -10 -23 -21 -23 -25 0 -3 30 -35 66 -70 65 -61 66
-63 45 -76 -26 -17 -27 -35 -2 -48 14 -8 23 -6 36 9 10 11 22 17 26 14 15 -9
10 -54 -6 -60 -11 -5 -12 -11 -4 -25 13 -25 31 -24 57 4 32 34 38 78 14 107
-15 19 -17 28 -9 42 9 14 8 20 -8 32 -15 10 -23 11 -33 3 -10 -8 -28 4 -75 51
-62 61 -62 61 -84 42z"/>
<path d="M1464 1351 c-20 -9 -95 -87 -152 -158 l-30 -39 23 -22 c16 -16 26
-19 31 -11 4 7 12 0 20 -20 29 -70 128 -93 182 -43 38 36 48 72 33 122 -12 40
-60 80 -96 80 -17 0 -17 1 0 20 10 11 28 20 40 20 20 0 88 -61 96 -86 4 -13
49 0 49 13 0 18 -41 72 -72 96 -37 28 -93 41 -124 28z m27 -149 c46 -38 21
-112 -38 -112 -56 0 -85 83 -41 114 29 21 51 20 79 -2z"/>
<path d="M3552 1252 l-23 -18 21 -19 c11 -10 34 -38 50 -63 24 -37 27 -48 19
-70 -6 -15 -14 -29 -19 -32 -15 -9 19 -50 35 -44 8 3 18 18 23 32 6 18 16 27
32 27 12 0 27 7 33 16 8 12 -5 34 -59 102 -38 48 -73 87 -79 87 -5 0 -20 -8
-33 -18z"/>
<path d="M3411 1143 l-22 -18 43 -60 c24 -33 54 -76 68 -96 23 -35 25 -36 47
-22 13 9 23 21 23 27 0 7 -20 40 -45 74 -25 34 -45 66 -45 70 0 10 -33 42 -42
42 -3 0 -15 -8 -27 -17z"/>
<path d="M1644 1114 c3 -9 6 -19 6 -23 0 -4 18 -14 41 -21 42 -14 59 -34 59
-69 0 -19 -2 -18 -46 7 -63 38 -108 61 -116 62 -12 0 -29 -78 -22 -105 8 -32
64 -81 103 -90 106 -23 192 114 120 191 -48 52 -161 89 -145 48z m38 -136 c45
-29 48 -33 32 -45 -25 -19 -44 -16 -71 9 -20 19 -33 68 -17 68 3 0 29 -14 56
-32z"/>
<path d="M3261 1056 c-39 -14 -81 -59 -81 -87 0 -30 37 -24 67 11 44 53 116
29 116 -40 0 -42 -19 -60 -64 -60 -28 0 -41 -5 -49 -19 -14 -27 -14 -28 18
-39 20 -7 40 -6 68 4 118 40 128 194 15 233 -41 13 -46 13 -90 -3z"/>
<path d="M1861 974 c-34 -29 -55 -89 -45 -131 10 -44 60 -83 105 -83 44 0 47
-8 23 -65 -8 -20 -14 -38 -12 -40 2 -1 14 -8 27 -15 30 -15 29 -18 87 140 25
68 50 133 55 142 8 15 5 20 -17 28 -14 6 -31 9 -38 8 -6 -2 -25 7 -43 20 -44
31 -102 30 -142 -4z m129 -54 c24 -24 25 -41 5 -80 -21 -41 -59 -49 -91 -19
-29 28 -31 68 -4 97 26 27 64 28 90 2z"/>
<path d="M3048 967 c-14 -6 -31 -20 -36 -31 -9 -18 -11 -19 -17 -5 -5 14 -11
15 -36 5 -20 -7 -28 -16 -25 -26 36 -106 51 -139 77 -162 36 -34 59 -35 125
-4 60 28 71 41 51 60 -12 13 -20 12 -56 -6 -34 -17 -47 -19 -67 -10 -36 17
-30 27 28 48 65 24 94 60 78 96 -20 43 -67 57 -122 35z m52 -41 c0 -2 3 -11 6
-20 6 -15 -47 -56 -73 -56 -19 0 -16 40 4 62 14 15 63 26 63 14z"/>
<path d="M3569 911 c-20 -16 -22 -23 -13 -38 23 -38 74 -23 74 22 0 13 -7 26
-16 29 -21 8 -19 9 -45 -13z"/>
<path d="M2131 838 c-23 -174 -27 -218 -23 -223 3 -3 16 -5 28 -5 17 0 42 23
91 84 37 47 70 85 73 85 5 1 67 -143 83 -191 4 -12 17 -18 36 -18 28 0 30 3
36 48 3 26 12 88 20 138 21 127 21 124 -20 124 l-35 0 0 -47 c0 -61 -10 -123
-20 -123 -4 0 -13 15 -19 33 -21 56 -56 121 -68 124 -6 2 -37 -28 -68 -67 -32
-39 -59 -69 -61 -68 -1 2 1 21 5 43 5 22 11 64 14 93 l6 52 -33 0 -34 0 -11
-82z"/>
<path d="M2725 887 c-13 -10 -16 -21 -12 -39 9 -33 35 -43 58 -22 24 22 24 51
0 64 -25 13 -24 13 -46 -3z"/>
</g>
</svg>
